<?xml version="1.0" ?><svg data-name="027_APPLIANCES" id="_027_APPLIANCES" viewBox="0 0 24 24" xmlns="http://www.w3.org/2000/svg"><defs><style>.cls-1{fill:#333;}</style></defs><path class="cls-1" d="M18.12,21H5.88A2.88,2.88,0,0,1,3,18.12V5.88A2.88,2.88,0,0,1,5.88,3H18.12A2.88,2.88,0,0,1,21,5.88V18.12A2.88,2.88,0,0,1,18.12,21ZM5.88,5A.89.89,0,0,0,5,5.88V18.12a.89.89,0,0,0,.88.88H18.12a.89.89,0,0,0,.88-.88V5.88A.89.89,0,0,0,18.12,5Z"/><path class="cls-1" d="M12,17a1,1,0,0,1-1-1V8a1,1,0,0,1,2,0v8A1,1,0,0,1,12,17Z"/><path class="cls-1" d="M16,17a1,1,0,0,1-1-1V8a1,1,0,0,1,2,0v8A1,1,0,0,1,16,17Z"/><path class="cls-1" d="M8,17a1,1,0,0,1-1-1V8A1,1,0,0,1,9,8v8A1,1,0,0,1,8,17Z"/></svg>