<?xml version="1.0" ?><svg data-name="027_APPLIANCES" id="_027_APPLIANCES" viewBox="0 0 24 24" xmlns="http://www.w3.org/2000/svg"><defs><style>.cls-1{fill:#333;}</style></defs><path class="cls-1" d="M18.12,21H5.88A2.88,2.88,0,0,1,3,18.12V5.88A2.88,2.88,0,0,1,5.88,3H18.12A2.88,2.88,0,0,1,21,5.88V18.12A2.88,2.88,0,0,1,18.12,21ZM5.88,5A.89.89,0,0,0,5,5.88V18.12a.89.89,0,0,0,.88.88H18.12a.89.89,0,0,0,.88-.88V5.88A.89.89,0,0,0,18.12,5Z"/><path class="cls-1" d="M12,18a6,6,0,1,1,6-6A6,6,0,0,1,12,18ZM12,8a4,4,0,1,0,4,4A4,4,0,0,0,12,8Z"/><path class="cls-1" d="M8.46,16.54a1,1,0,0,1-.7-.3,1,1,0,0,1,0-1.41l7.07-7.07a1,1,0,1,1,1.41,1.41L9.17,16.24A1,1,0,0,1,8.46,16.54Z"/><path class="cls-1" d="M15.54,16.54a1,1,0,0,1-.71-.3L7.76,9.17A1,1,0,0,1,9.17,7.76l7.07,7.07a1,1,0,0,1,0,1.41A1,1,0,0,1,15.54,16.54Z"/></svg>