<?xml version="1.0" ?><svg data-name="027_APPLIANCES" id="_027_APPLIANCES" viewBox="0 0 24 24" xmlns="http://www.w3.org/2000/svg"><defs><style>.cls-1{fill:#333;}</style></defs><path class="cls-1" d="M16,22H8a3,3,0,0,1-3-3V16.14a1,1,0,0,1,2,0V19a1,1,0,0,0,1,1h8a1,1,0,0,0,1-1V5a1,1,0,0,0-1-1H8A1,1,0,0,0,7,5v7.64a1,1,0,0,1-2,0V5A3,3,0,0,1,8,2h8a3,3,0,0,1,3,3V19A3,3,0,0,1,16,22Z"/><path class="cls-1" d="M18,17H6a1,1,0,0,1,0-2H18a1,1,0,0,1,0,2Z"/><path class="cls-1" d="M12,13.5a1,1,0,0,1-1-1v-6a1,1,0,0,1,2,0v6A1,1,0,0,1,12,13.5Z"/><path class="cls-1" d="M9.4,12a1,1,0,0,1-.5-1.87l5.2-3a1,1,0,0,1,1,1.74l-5.2,3A1,1,0,0,1,9.4,12Z"/><path class="cls-1" d="M14.6,12a1,1,0,0,1-.5-.13l-5.2-3a1,1,0,0,1,1-1.74l5.2,3A1,1,0,0,1,14.6,12Z"/></svg>