<?xml version="1.0" ?><svg data-name="027_APPLIANCES" id="_027_APPLIANCES" viewBox="0 0 24 24" xmlns="http://www.w3.org/2000/svg"><defs><style>.cls-1{fill:#333;}</style></defs><path class="cls-1" d="M19,17a1,1,0,0,1,0-2,1,1,0,0,0,1-1V6a1,1,0,0,0-1-1H5A1,1,0,0,0,4,6v8a1,1,0,0,0,1,1H15a1,1,0,0,1,0,2H5a3,3,0,0,1-3-3V6A3,3,0,0,1,5,3H19a3,3,0,0,1,3,3v8A3,3,0,0,1,19,17Z"/><path class="cls-1" d="M16.29,8.71A1.05,1.05,0,0,1,16,8h0a1.05,1.05,0,0,1,.29-.71h0A1.05,1.05,0,0,1,17,7h0a1.05,1.05,0,0,1,.71.29h0A1.05,1.05,0,0,1,18,8h0a1.05,1.05,0,0,1-.29.71h0A1.05,1.05,0,0,1,17,9h0A1.05,1.05,0,0,1,16.29,8.71Z"/><path class="cls-1" d="M17,13H7a1,1,0,0,1,0-2H17a1,1,0,0,1,0,2Z"/><path class="cls-1" d="M8,22a1,1,0,0,1-1-1V19a1,1,0,0,1,2,0v2A1,1,0,0,1,8,22Z"/><path class="cls-1" d="M12,22a1,1,0,0,1-1-1V19a1,1,0,0,1,2,0v2A1,1,0,0,1,12,22Z"/><path class="cls-1" d="M16,22a1,1,0,0,1-1-1V19a1,1,0,0,1,2,0v2A1,1,0,0,1,16,22Z"/></svg>